<?xml version="1.0" standalone="no"?>
<!DOCTYPE svg PUBLIC "-//W3C//DTD SVG 20010904//EN"
 "http://www.w3.org/TR/2001/REC-SVG-20010904/DTD/svg10.dtd">
<svg version="1.0" xmlns="http://www.w3.org/2000/svg"
 width="360.000000pt" height="360.000000pt" viewBox="0 0 360.000000 360.000000"
 preserveAspectRatio="xMidYMid meet">

<g transform="translate(0.000000,360.000000) scale(0.100000,-0.100000)"
fill="#000000" stroke="none">
<path d="M760 3110 c-43 -23 -83 -65 -98 -105 -11 -27 -39 -134 -138 -519 -33
-125 -35 -145 -26 -190 6 -28 15 -80 21 -115 21 -127 101 -252 196 -302 l45
-24 0 -615 0 -616 23 -44 c13 -26 40 -57 65 -75 l44 -30 897 -3 897 -2 45 23
c24 13 58 43 74 66 l30 43 3 626 2 627 45 24 c90 47 172 169 194 285 36 197
36 178 -4 331 -21 77 -57 217 -82 310 -24 94 -49 184 -55 200 -15 41 -55 83
-100 106 -36 18 -72 19 -1040 19 -959 -1 -1005 -2 -1038 -20z m440 -147 c0 -5
-21 -146 -47 -315 l-47 -308 -223 0 c-123 0 -223 2 -223 4 0 4 96 372 134 515
14 52 31 98 38 103 16 10 368 11 368 1z m515 -308 l0 -310 -217 -3 c-198 -2
-218 -1 -218 14 0 10 14 105 30 213 17 108 37 238 45 289 8 51 17 97 20 102 4
7 68 9 173 8 l167 -3 0 -310z m510 305 c3 -5 12 -51 20 -102 8 -51 28 -181 45
-289 16 -108 30 -203 30 -213 0 -15 -20 -16 -217 -14 l-218 3 -3 300 c-1 165
0 305 3 312 6 16 330 19 340 3z m543 2 c7 -5 26 -60 43 -123 65 -246 129 -492
129 -495 0 -2 -100 -4 -223 -4 l-223 0 -47 308 c-26 169 -47 310 -47 315 0 10
352 9 368 -1z m-1696 -809 c-2 -10 -15 -33 -29 -51 -74 -98 -208 -122 -283
-49 -31 30 -73 105 -65 117 2 3 88 4 192 3 174 -2 188 -4 185 -20z m1830 0
c-10 -48 -67 -118 -110 -134 -64 -24 -161 2 -214 58 -29 30 -59 83 -53 92 1 3
88 5 192 4 174 -2 188 -4 185 -20z m-1202 3 c0 -26 -64 -99 -104 -119 -49 -26
-132 -33 -181 -17 -56 19 -145 107 -145 145 0 3 97 5 215 5 179 0 215 -2 215
-14z m630 9 c0 -18 -34 -66 -68 -97 -49 -45 -100 -62 -167 -56 -68 6 -122 35
-162 87 -56 73 -60 71 182 71 118 0 215 -2 215 -5z m-1002 -288 c60 -28 77
-31 157 -31 115 0 183 26 260 96 l55 50 55 -50 c77 -70 145 -96 260 -96 80 0
97 3 157 31 37 17 86 50 111 72 l44 40 33 -34 c36 -37 128 -89 176 -99 l31 -7
6 -142 c8 -192 2 -1056 -7 -1065 -4 -4 -219 -8 -477 -10 l-469 -3 0 448 c0
275 -4 462 -10 485 -6 20 -24 48 -41 62 l-31 26 -254 0 -254 0 -38 -34 -37
-34 -5 -474 -5 -473 -45 -3 c-25 -1 -51 2 -59 7 -11 7 -14 95 -16 472 -2 255
-1 526 2 601 l6 137 31 7 c48 10 140 62 176 99 l33 34 44 -40 c25 -22 74 -55
111 -72z m220 -814 l-3 -428 -162 -3 -163 -2 0 430 0 430 165 0 165 0 -2 -427z"/>
<path d="M1899 1635 c-54 -29 -59 -58 -59 -345 0 -223 2 -267 16 -297 30 -62
32 -63 335 -65 387 -4 361 -31 357 378 l-3 286 -33 29 -32 29 -278 0 c-220 -1
-282 -4 -303 -15z m481 -345 l0 -200 -185 0 -185 0 0 200 0 200 185 0 185 0 0
-200z"/>
</g>
</svg>
